<?xml version="1.0" encoding="utf-8"?>
<!DOCTYPE svg PUBLIC "-//W3C//DTD SVG 1.1//EN" "http://www.w3.org/Graphics/SVG/1.1/DTD/svg11.dtd">
<svg version="1.1" id="Layer_1" xmlns="http://www.w3.org/2000/svg" xmlns:xlink="http://www.w3.org/1999/xlink" x="0px" y="0px"
	 width="60px" height="60px" viewBox="0 0 60 60" enable-background="new 0 0 60 60" xml:space="preserve">
<g>
	<path fill="#66CC66" d="M54.1,15.8l-9.9-9.9C40.4,2.1,35.4,0,30,0S19.6,2.1,15.8,5.9l-9.9,9.9C2.1,19.6,0,24.6,0,30
		s2.1,10.4,5.9,14.2l9.9,9.9C19.6,57.9,24.6,60,30,60c5.2,0,10.2-2,14-5.6l0,0l0,0l10.1-10.1C57.9,40.4,60,35.4,60,30
		S57.9,19.6,54.1,15.8z"/>
	<path fill="#FFFFFF" d="M37.1,47.1C35.3,48.9,32.8,50,30,50c-2.8,0-5.4-1.2-7.3-3l4.8-4.8c0.6,0.6,1.5,1,2.5,1s1.8-0.4,2.5-1
		l9.7-9.7c0.6-0.6,1-1.5,1-2.5c0-1-0.4-1.8-1-2.5c-0.6-0.6-1.5-1-2.5-1c-1,0-1.8,0.4-2.5,1l-9.7,9.7c-1.9,1.9-4.4,3-7.3,3
		s-5.4-1.2-7.3-3c-1.9-1.9-3-4.4-3-7.3s1.2-5.4,3-7.3l9.7-9.7c1.9-1.9,4.4-3,7.3-3s5.4,1.2,7.3,3l-4.8,4.8c-0.6-0.6-1.5-1-2.5-1
		c-1,0-1.8,0.4-2.5,1l-9.7,9.7c-0.6,0.6-1,1.5-1,2.5c0,1,0.4,1.8,1,2.5c0.6,0.6,1.5,1,2.5,1c1,0,1.8-0.4,2.5-1l9.7-9.7
		c1.9-1.9,4.4-3,7.3-3s5.4,1.2,7.3,3c1.9,1.9,3,4.4,3,7.3c0,2.8-1.2,5.4-3,7.3L37.1,47.1z"/>
</g>
</svg>
